<?xml version="1.0" encoding="utf-8"?>
<!-- Generator: Adobe Illustrator 15.0.0, SVG Export Plug-In . SVG Version: 6.00 Build 0)  -->
<!DOCTYPE svg PUBLIC "-//W3C//DTD SVG 1.1//EN" "http://www.w3.org/Graphics/SVG/1.1/DTD/svg11.dtd">
<svg version="1.1" id="Layer_1" xmlns="http://www.w3.org/2000/svg" xmlns:xlink="http://www.w3.org/1999/xlink" x="0px" y="0px"
	 width="275.325px" height="43.506px" viewBox="0 0 275.325 43.506" enable-background="new 0 0 275.325 43.506"
	 xml:space="preserve">
<g>
	<g>
		<g>
			<path fill="#FFFFFF" d="M50.913,7.629c0,0.258-0.064,0.508-0.193,0.751L36.833,36.179c-0.375,0.752-0.886,1.128-1.533,1.128
				s-1.158-0.386-1.533-1.158l-5.493-10.958l-5.475,10.988c-0.374,0.752-0.886,1.128-1.533,1.128c-0.634,0-1.145-0.379-1.532-1.138
				L5.845,8.372C5.705,8.129,5.634,7.879,5.634,7.624c0-0.413,0.168-0.77,0.506-1.068s0.722-0.449,1.152-0.449
				c0.604,0,1.049,0.291,1.336,0.874l12.627,25.233l5.277-10.547L19.879,8.372c-0.141-0.242-0.211-0.492-0.211-0.748
				c0-0.413,0.168-0.77,0.506-1.068c0.337-0.299,0.715-0.449,1.131-0.449c0.618,0,1.07,0.291,1.357,0.874l5.622,11.187l5.598-11.188
				c0.287-0.582,0.74-0.873,1.357-0.873c0.417,0,0.794,0.15,1.132,0.45c0.338,0.301,0.507,0.658,0.507,1.073
				c0,0.258-0.064,0.508-0.193,0.751l-6.661,13.311l5.266,10.522L47.917,6.979c0.287-0.582,0.732-0.873,1.336-0.873
				c0.432,0,0.815,0.15,1.153,0.45C50.743,6.857,50.913,7.214,50.913,7.629z"/>
			<path fill="#FFFFFF" d="M75.421,35.74c0,1.045-0.52,1.567-1.557,1.567s-1.556-0.522-1.556-1.566V23.273H56.687v12.468
				c0,1.044-0.519,1.566-1.556,1.566s-1.556-0.522-1.556-1.567V7.673c0-1.045,0.519-1.567,1.556-1.567s1.556,0.523,1.556,1.569
				v12.486h15.622V7.675c0-1.046,0.519-1.569,1.556-1.569s1.557,0.522,1.557,1.567V35.74z"/>
			<path fill="#FFFFFF" d="M109.317,21.696c0,4.31-1.527,7.988-4.582,11.037c-3.055,3.05-6.728,4.574-11.019,4.574
				c-4.292,0-7.965-1.524-11.02-4.574c-3.055-3.049-4.581-6.728-4.581-11.037c0-4.294,1.526-7.967,4.581-11.016
				s6.728-4.574,11.02-4.574c4.291,0,7.964,1.525,11.019,4.574S109.317,17.402,109.317,21.696z M106.205,21.696
				c0-3.437-1.222-6.375-3.665-8.816s-5.385-3.662-8.823-3.662c-3.439,0-6.381,1.221-8.824,3.662s-3.665,5.38-3.665,8.816
				c0,3.451,1.222,6.396,3.665,8.838s5.385,3.662,8.824,3.662c3.438,0,6.38-1.221,8.823-3.662S106.205,25.147,106.205,21.696z"/>
			<path fill="#FFFFFF" d="M166.922,35.719c0,1.059-0.531,1.588-1.593,1.588c-0.487,0-0.946-0.27-1.377-0.809l-18.876-24.295V35.74
				c0,1.045-0.519,1.567-1.556,1.567s-1.556-0.522-1.556-1.566V7.694c0-1.059,0.529-1.588,1.588-1.588
				c0.486,0,0.944,0.279,1.374,0.837l18.884,24.271V7.674c0-1.046,0.515-1.568,1.545-1.568c1.044,0,1.566,0.522,1.566,1.566V35.719z
				"/>
			<path fill="#FFFFFF" d="M250.649,7.629c0,0.258-0.064,0.508-0.193,0.751l-13.887,27.799c-0.375,0.752-0.886,1.128-1.533,1.128
				s-1.158-0.386-1.533-1.158l-5.493-10.958l-5.475,10.988c-0.374,0.752-0.886,1.128-1.533,1.128c-0.634,0-1.145-0.379-1.532-1.138
				L205.582,8.372c-0.141-0.242-0.211-0.492-0.211-0.748c0-0.413,0.168-0.77,0.506-1.068s0.722-0.449,1.152-0.449
				c0.604,0,1.049,0.291,1.336,0.874l12.627,25.233l5.277-10.547l-6.653-13.295c-0.141-0.242-0.211-0.492-0.211-0.748
				c0-0.413,0.168-0.77,0.506-1.068c0.337-0.299,0.715-0.449,1.131-0.449c0.618,0,1.07,0.291,1.357,0.874l5.622,11.187l5.598-11.188
				c0.287-0.582,0.74-0.873,1.357-0.873c0.417,0,0.794,0.15,1.132,0.45c0.338,0.301,0.507,0.658,0.507,1.073
				c0,0.258-0.064,0.508-0.193,0.751l-6.661,13.311l5.266,10.522l12.627-25.234c0.287-0.582,0.732-0.873,1.336-0.873
				c0.432,0,0.815,0.15,1.153,0.45C250.479,6.857,250.649,7.214,250.649,7.629z"/>
			<path fill="#FFFFFF" d="M267.935,27.951c0,2.575-0.916,4.778-2.746,6.609c-1.832,1.832-4.035,2.747-6.609,2.747
				c-1.631,0-3.19-0.422-4.679-1.266c-1.53-0.858-2.675-1.996-3.434-3.412c-0.157-0.301-0.235-0.572-0.235-0.815
				c0-0.43,0.168-0.794,0.504-1.095s0.719-0.45,1.148-0.45c0.443,0,0.872,0.265,1.287,0.794c0.157,0.243,0.408,0.594,0.751,1.051
				c1.202,1.388,2.754,2.082,4.657,2.082c1.716,0,3.187-0.611,4.409-1.835c1.224-1.223,1.835-2.693,1.835-4.41
				c0-1.716-0.611-3.187-1.835-4.409c-1.223-1.224-2.693-1.835-4.409-1.835c-2.146,0-3.981-0.763-5.505-2.288
				s-2.285-3.363-2.285-5.512c0-2.149,0.762-3.986,2.285-5.512c1.523-1.526,3.358-2.289,5.505-2.289
				c1.358,0,2.664,0.352,3.916,1.056c1.251,0.703,2.192,1.644,2.821,2.82c0.157,0.302,0.236,0.581,0.236,0.84
				c0,0.416-0.165,0.775-0.493,1.077c-0.329,0.301-0.708,0.451-1.138,0.451c-0.344,0-0.994-0.521-1.953-1.566
				c-0.958-1.044-2.089-1.566-3.39-1.566c-1.288,0-2.39,0.459-3.305,1.377c-0.916,0.918-1.374,2.021-1.374,3.312
				c0,1.29,0.458,2.395,1.374,3.312c0.915,0.918,2.017,1.377,3.305,1.377c2.574,0,4.777,0.915,6.609,2.746
				C267.019,23.173,267.935,25.376,267.935,27.951z"/>
		</g>
		<g>
			<path fill-rule="evenodd" clip-rule="evenodd" fill="#FFFFFF" d="M198.723,30.276c0,2.336,0,4.675,0,7.013
				c-0.452,0.139-0.776-0.55-1.131-0.903c-1.121-1.121-2.581-2.511-3.733-3.621c-1.732,0.856-5.153,0.724-6.789-0.114
				c-3.49,1.525-7.243-0.362-8.6-2.714c-3.65-0.2-5.566-2.131-6.337-5.204c-3.571-2.544-2.486-10.19,1.812-11.091
				c0.545-2.293,1.948-3.971,3.959-4.753c0.745-0.29,1.635-0.042,2.602-0.338c0.63-0.193,1.077-1.024,1.812-1.472
				c1.709-1.041,4.627-1.422,6.788,0c5.231-2.2,10.146-0.26,12.219,3.96c0.387,0.785,0.522,1.733,0.907,2.378
				c0.88,1.473,2.288,2.809,2.037,5.543c-0.081,0.873-0.371,1.582-0.792,2.489C204.845,25.776,202.405,29.561,198.723,30.276z
				 M181.636,10.926c-2.734-0.444-5.518,0.568-4.751,3.621c2.629-0.359,5.525-1.465,7.354,0.339
				c-0.449,0.606-0.725,1.389-1.244,1.923c-1.892-2.079-6.568,1.754-8.259-1.133c-3.063,0.941-3.298,6.335-0.566,7.81
				c0.315,2.323,1.549,3.731,3.733,4.187c1.411-1.888-0.122-4.25-1.583-4.978c0.53-0.524,0.749-1.363,1.356-1.813
				c1.159,0.954,2.388,1.838,2.828,3.51c0.68-0.068,1.348-0.523,2.037-0.227c-0.112,0.793-0.32,1.49-0.453,2.262
				c-3.745,0.901-0.379,4.922,2.375,4.527c3.812-0.547,4.115-7.606,8.601-7.015c1.288,0.168,1.787,0.774,2.715,1.471
				c-0.471,0.582-0.877,1.234-1.469,1.697c-2.757-2.847-4.229,2.293-5.544,3.731c2.15,0.66,4.481-0.098,5.883-0.902
				c0.939,1.099,1.633,2.441,2.604,3.507c-0.374-1.664-0.953-3.725-1.134-5.205c4.244,0.458,6.61-3.228,4.866-6.677
				c-2.359-0.965-4.063-1.014-4.866,1.357c-0.695-0.246-1.496-0.388-2.037-0.79c0.378-1.434,1.429-2.193,2.265-3.169
				c-0.451-0.605-0.96-1.154-0.906-2.265c0.856-0.06,1.514,0.075,2.264,0.114c0.658,1.495,2.398,2.5,4.188,2.489
				c0.508-2.344-0.795-3.784-1.924-4.864c-0.615-4.176-4.199-6.938-9.167-5.659c0.468,1.243-0.444,2.401-0.225,3.396
				c0.247,1.123,1.558,1.179,2.603,1.697c-0.205,0.664-0.061,1.676-0.453,2.148c-1.484-0.25-2.555-0.913-3.509-1.697
				c-0.387,0.781-1.115,1.221-2.037,1.473c-0.072-0.758-0.236-1.421-0.339-2.15c0.988-1.012,1.86-2.14,1.699-4.3
				C186.241,7.358,182.597,8.977,181.636,10.926z"/>
			<path fill-rule="evenodd" clip-rule="evenodd" fill="#FFFFFF" d="M192.614,20.881c-0.646,0.373-1.456,0.584-2.263,0.794
				c-0.043-0.789-0.459-1.202-0.793-1.697c-2.213,1.041-3.296,3.524-6.9,2.828c0.205-0.661,0.115-1.617,0.338-2.263
				c3.262,0.936,4.831-4.488,7.919-2.489C191.842,18.655,191.906,19.68,192.614,20.881z"/>
		</g>
	</g>
</g>
<text transform="matrix(1 0 0 1 115.9663 37.3071)" fill="#FFFFFF" font-family="'Eurofurenceregular'" font-size="50.2826" letter-spacing="-1">K</text>
</svg>
